<?xml version="1.0" encoding="UTF-8"?>
<svg width="64px" height="64px" viewBox="0 0 64 64" version="1.1" xmlns="http://www.w3.org/2000/svg" xmlns:xlink="http://www.w3.org/1999/xlink">
    <!-- Generator: Sketch 60.1 (88133) - https://sketch.com -->
    <title>Artboard</title>
    <desc>Created with Sketch.</desc>
    <g id="Artboard" stroke="none" stroke-width="1" fill="none" fill-rule="evenodd">
        <g id="devto" transform="translate(5.000000, 19.000000)" fill="#FFFFFF" fill-rule="nonzero">
            <path d="M37.7694175,6.23762376 C38.7378641,9.7029703 40.1213592,15.2475248 41.0898058,18.7128713 C42.473301,24.1188119 42.8883495,25.2277228 44.1334951,26.4752475 C44.9635922,27.3069307 45.9320388,27.8613861 46.6237864,27.8613861 C48.0072816,27.8613861 49.6674757,26.4752475 50.3592233,24.950495 C50.7742718,23.8415842 57,0.831683168 57,0.277227723 C57,0.138613861 55.7548544,5.37070388e-15 54.3713592,0.138613861 L51.6043689,0.277227723 L49.1140777,9.56435644 C47.592233,15.5247525 46.6237864,18.5742574 46.4854369,18.019802 C46.0703883,17.049505 41.7815534,0.415841584 41.7815534,0.277227723 C41.7815534,0.138613861 40.5364078,0.138613861 39.0145631,0.138613861 L36.2475728,0.138613861 L37.7694175,6.23762376 Z M20.0606796,1.24752475 C19.2305825,2.35643564 19.092233,2.91089109 19.092233,14.1386139 L19.092233,25.7821782 L20.1990291,26.8910891 C21.1674757,28 21.4441748,28 27.1165049,28 L32.9271845,28 L32.9271845,23.2871287 L28.5,23.1485149 L24.211165,22.8712871 L24.211165,16.3564356 L26.9781553,16.2178218 L29.6067961,16.0792079 L29.6067961,11.3663366 L23.934466,11.3663366 L23.934466,4.85148515 L33.065534,4.85148515 L33.065534,0 L26.9781553,0 C21.0291262,0 20.8907767,0 20.0606796,1.24752475 Z M10.0995146,5.68316832 C11.0679612,6.51485149 11.2063107,6.65346535 11.2063107,13.7227723 C11.2063107,20.5148515 11.2063107,20.9306931 10.2378641,21.9009901 C9.5461165,22.5940594 8.71601942,22.8712871 7.19417476,22.8712871 L5.11893204,22.8712871 L4.98058252,13.8613861 L4.84223301,4.85148515 L6.91747573,4.85148515 C8.43932039,4.85148515 9.40776699,5.12871287 10.0995146,5.68316832 L10.0995146,5.68316832 Z M0,14 L0,27.8613861 L4.84223301,27.8613861 C10.2378641,27.8613861 12.5898058,27.1683168 14.1116505,25.0891089 C15.7718447,23.009901 16.0485437,21.2079208 15.9101942,12.8910891 C15.7718447,5.54455446 15.6334951,4.99009901 14.8033981,3.46534653 C13.1432039,0.831683168 11.3446602,0.138613861 5.25728155,0.138613861 L0,0.138613861 L0,14 L0,14 Z" id="Shape"></path>
        </g>
    </g>
</svg>