<?xml version="1.0" encoding="UTF-8"?>
<svg width="414px" height="414px" viewBox="0 0 414 414" version="1.1" xmlns="http://www.w3.org/2000/svg" xmlns:xlink="http://www.w3.org/1999/xlink">
    <!-- Generator: Sketch 60.1 (88133) - https://sketch.com -->
    <title>Untitled</title>
    <desc>Created with Sketch.</desc>
    <g id="Page-1" stroke="none" stroke-width="1" fill="none" fill-rule="evenodd">
        <g id="docker" fill-rule="nonzero">
            <rect id="Rectangle" x="0" y="0" width="414" height="414" rx="15"></rect>
            <g id="Group" transform="translate(4.528767, 75.000000)">
                <path d="M229.471233,92.5 L271.471233,92.5 M179.471233,92.5 L221.471233,92.5 M130.471233,92.5 L172.471233,92.5 M81.4712327,92.5 L122.471233,92.5 M31.4712327,92.5 L73.4712327,92.5 M81.4712327,46.5 L122.471233,46.5 M130.471233,46.5 L172.471233,46.5 M179.471233,46.5 L221.471233,46.5 M179.471233,0.5 L221.471233,0.5" id="Shape" stroke="#066DA5" stroke-width="38" fill="#000000"></path>
                <path d="M405.471233,94.5 C405.471233,94.5 387.471233,77.5 350.471233,83.5 C346.471233,54.5 315.471233,37.5 315.471233,37.5 C315.471233,37.5 286.471233,72.5 307.471233,111.5 C301.471233,114.5 291.471233,118.5 276.471233,118.5 L1.47123266,118.5 C-3.52876734,137.5 -3.52876734,263.5 134.471233,263.5 C233.471233,263.5 307.471233,217.5 342.471233,133.5 C394.471233,137.5 405.471233,94.5 405.471233,94.5" id="Path" fill="#066DA5"></path>
            </g>
        </g>
    </g>
</svg>