<?xml version="1.0" encoding="UTF-8"?>
<svg width="80px" height="80px" viewBox="0 0 80 80" version="1.1" xmlns="http://www.w3.org/2000/svg" xmlns:xlink="http://www.w3.org/1999/xlink">
    <!-- Generator: Sketch 60.1 (88133) - https://sketch.com -->
    <title>Artboard</title>
    <desc>Created with Sketch.</desc>
    <g id="Artboard" stroke="none" stroke-width="1" fill="none" fill-rule="evenodd">
        <g id="golang" transform="translate(3.000000, 26.000000)" fill="#00ACD7" fill-rule="nonzero">
            <path d="M6.3,8.7 C6.2,8.7 6.1,8.6 6.2,8.5 L6.9,7.5 C7,7.4 7.1,7.3 7.3,7.3 L19.9,7.3 C20,7.3 20.1,7.4 20,7.5 L19.4,8.4 C19.3,8.5 19.2,8.6 19,8.6 L6.3,8.7 L6.3,8.7 Z M1,11.9 C0.9,11.9 0.8,11.8 0.9,11.7 L1.6,10.7 C1.7,10.6 1.8,10.5 2,10.5 L18.1,10.5 C18.2,10.5 18.3,10.6 18.3,10.7 L18,11.7 C18,11.8 17.8,11.9 17.7,11.9 L1,11.9 Z M9.5,15.2 C9.4,15.2 9.3,15.1 9.4,15 L9.9,14.1 C10,14 10.1,13.9 10.3,13.9 L17.3,13.9 C17.4,13.9 17.5,14 17.5,14.1 L17.4,14.9 C17.4,15 17.3,15.1 17.2,15.1 L9.5,15.2 L9.5,15.2 Z M46.1,8 L40.2,9.5 C39.7,9.6 39.6,9.7 39.2,9.1 C38.7,8.5 38.3,8.1 37.5,7.8 C35.3,6.7 33.1,7 31.1,8.3 C28.7,9.8 27.5,12.1 27.5,15 C27.5,17.8 29.5,20.1 32.3,20.5 C34.7,20.8 36.7,20 38.3,18.2 C38.6,17.8 38.9,17.4 39.3,16.9 L32.5,16.9 C31.8,16.9 31.6,16.4 31.8,15.8 C32.3,14.7 33.1,12.9 33.6,12 C33.7,11.8 34,11.4 34.5,11.4 L47.3,11.4 C47.2,12.4 47.2,13.3 47.1,14.3 C46.7,16.8 45.8,19.2 44.2,21.2 C41.7,24.5 38.4,26.6 34.2,27.2 C30.7,27.7 27.5,27 24.7,24.9 C22.1,22.9 20.6,20.3 20.2,17.1 C19.7,13.3 20.9,9.8 23.2,6.8 C25.7,3.5 29,1.4 33.1,0.7 C36.4,0.1 39.6,0.5 42.4,2.4 C44.3,3.6 45.6,5.3 46.5,7.4 C46.6,7.8 46.5,7.9 46.1,8 L46.1,8 Z" id="Shape"></path>
            <path d="M57.7,27.5 C54.5,27.4 51.6,26.5 49.1,24.4 C47,22.6 45.7,20.3 45.3,17.6 C44.7,13.6 45.8,10.1 48.2,7 C50.8,3.6 53.9,1.9 58.1,1.1 C61.7,0.5 65.1,0.8 68.1,2.9 C70.9,4.8 72.6,7.4 73.1,10.8 C73.7,15.6 72.3,19.4 69.1,22.7 C66.8,25.1 63.9,26.5 60.7,27.2 C59.6,27.4 58.6,27.4 57.7,27.5 L57.7,27.5 Z M66.1,13.3 C66.1,12.8 66.1,12.5 66,12.1 C65.4,8.6 62.2,6.6 58.8,7.4 C55.5,8.1 53.4,10.2 52.6,13.5 C52,16.2 53.3,19 55.8,20.2 C57.7,21 59.7,20.9 61.5,20 C64.4,18.6 65.9,16.3 66.1,13.3 L66.1,13.3 Z" id="Shape"></path>
        </g>
    </g>
</svg>