<?xml version="1.0" encoding="UTF-8"?>
<svg width="400px" height="400px" viewBox="0 0 400 400" version="1.1" xmlns="http://www.w3.org/2000/svg" xmlns:xlink="http://www.w3.org/1999/xlink">
    <g stroke="none" stroke-width="1" fill="none" fill-rule="evenodd">
        <rect fill="#000000" x="0" y="0" width="400" height="400"></rect>
        <path d="M92.1,275.58 C100.5,275.58 107.516667,275.18 113.15,274.38 C118.783333,273.58 123.233333,272.33 126.5,270.63 C129.766667,268.93 132.1,266.78 133.5,264.18 C134.9,261.58 135.6,258.48 135.6,254.88 C135.6,251.346667 135.05,248.263333 133.95,245.63 C132.85,242.996667 131.133333,240.796667 128.8,239.03 C126.466667,237.263333 123.516667,235.863333 119.95,234.83 C116.383333,233.796667 112.133333,233.146667 107.2,232.88 L107.2,232.88 L70,230.68 C67.9333333,230.48 66.25,230.263333 64.95,230.03 C63.65,229.796667 62.7,229.363333 62.1,228.73 C61.5,228.096667 61.2,227.146667 61.2,225.88 C61.2,224.813333 61.45,223.963333 61.95,223.33 C62.45,222.696667 63.4166667,222.196667 64.85,221.83 C66.2833333,221.463333 68.4166667,221.196667 71.25,221.03 C74.0833333,220.863333 77.7666667,220.78 82.3,220.78 C86.5666667,220.78 90.85,220.896667 95.15,221.13 C99.45,221.363333 103.633333,221.663333 107.7,222.03 C111.766667,222.396667 115.616667,222.83 119.25,223.33 C122.883333,223.83 126.133333,224.38 129,224.98 L129,224.98 L132.3,209.68 C128.9,208.946667 125.216667,208.28 121.25,207.68 C117.283333,207.08 113.25,206.58 109.15,206.18 C105.05,205.78 101.1,205.463333 97.3,205.23 C93.5,204.996667 90.0666667,204.88 87,204.88 C76.4666667,204.88 67.8833333,205.613333 61.25,207.08 C54.6166667,208.546667 49.75,210.846667 46.65,213.98 C43.55,217.113333 42,221.246667 42,226.38 C42,230.646667 42.9333333,234.23 44.8,237.13 C46.6666667,240.03 49.7333333,242.296667 54,243.93 C58.2666667,245.563333 63.9,246.58 70.9,246.98 L70.9,246.98 L108.6,249.08 C110.4,249.213333 111.866667,249.43 113,249.73 C114.133333,250.03 114.983333,250.496667 115.55,251.13 C116.116667,251.763333 116.4,252.813333 116.4,254.28 C116.4,255.28 116.15,256.13 115.65,256.83 C115.15,257.53 114.233333,258.08 112.9,258.48 C111.566667,258.88 109.666667,259.18 107.2,259.38 C104.733333,259.58 101.5,259.68 97.5,259.68 C92.3666667,259.68 87.45,259.53 82.75,259.23 C78.05,258.93 73.55,258.496667 69.25,257.93 C64.95,257.363333 60.8666667,256.746667 57,256.08 C53.1333333,255.413333 49.4666667,254.68 46,253.88 L46,253.88 L43.1,270.18 C47.2333333,271.18 52.0166667,272.08 57.45,272.88 C62.8833333,273.68 68.6,274.33 74.6,274.83 C80.6,275.33 86.4333333,275.58 92.1,275.58 Z M165.102216,274.28 L165.102,258.201 L184.983,245.099 L217.002216,274.28 L243.902216,274.28 L200.78,235.012 L241.902216,206.08 L214.002216,206.08 L177.102216,230.48 L165.102,240.161 L165.102216,206.08 L144.802216,206.08 L144.802216,274.28 L165.102216,274.28 Z M311.478357,274.28 L311.478357,249.08 L357.778357,206.08 L332.178357,206.08 L301.578357,233.68 L270.978357,206.08 L244.978357,206.08 L291.178357,248.98 L291.178357,274.28 L311.478357,274.28 Z" fill="#FFFFFF" fill-rule="nonzero"></path>
        <path d="M63.36,196.28 L63.36,159.32 L63.96,159.32 C64.36,161.08 64.84,162.88 65.4,164.72 C65.96,166.56 66.6,168.4 67.32,170.24 L67.32,170.24 L74.04,186.08 L92.76,186.08 L99.48,170.24 C100.36,168.24 101.06,166.36 101.58,164.6 C102.1,162.84 102.52,161.08 102.84,159.32 L102.84,159.32 L103.44,159.32 L103.44,196.28 L123.36,196.28 L123.36,125 L102.12,125 L88.44,156.32 C87.64,158.08 86.82,160.06 85.98,162.26 C85.14,164.46 84.52,166.32 84.12,167.84 L84.12,167.84 L83.52,167.84 C83.12,166.32 82.5,164.46 81.66,162.26 C80.82,160.06 80,158.08 79.2,156.32 L79.2,156.32 L65.52,125 L44.28,125 L44.28,196.28 L63.36,196.28 Z M150.36,196.28 L155.04,181.28 L177,181.28 L181.68,196.28 L203.04,196.28 L178.2,125 L154.8,125 L129.96,196.28 L150.36,196.28 Z M172.08,165.56 L159.84,165.56 L163.32,154.52 C163.88,152.84 164.34,151.24 164.7,149.72 C165.06,148.2 165.4,146.68 165.72,145.16 L165.72,145.16 L166.32,145.16 C166.64,146.68 166.98,148.2 167.34,149.72 C167.7,151.24 168.16,152.84 168.72,154.52 L168.72,154.52 L172.08,165.56 Z M228.72,196.28 L228.72,155.96 L229.32,155.96 C230.2,157.48 231.1,159.02 232.02,160.58 C232.94,162.14 233.92,163.64 234.96,165.08 L234.96,165.08 L256.92,196.28 L273.84,196.28 L273.84,125 L254.76,125 L254.76,162.08 L254.16,162.08 C253.36,160.48 252.48,158.92 251.52,157.4 C250.56,155.88 249.56,154.4 248.52,152.96 L248.52,152.96 L228.96,125 L209.64,125 L209.64,196.28 L228.72,196.28 Z M300.84,196.28 L305.52,181.28 L327.48,181.28 L332.16,196.28 L353.52,196.28 L328.68,125 L305.28,125 L280.44,196.28 L300.84,196.28 Z M322.56,165.56 L310.32,165.56 L313.8,154.52 C314.36,152.84 314.82,151.24 315.18,149.72 C315.54,148.2 315.88,146.68 316.2,145.16 L316.2,145.16 L316.8,145.16 C317.12,146.68 317.46,148.2 317.82,149.72 C318.18,151.24 318.64,152.84 319.2,154.52 L319.2,154.52 L322.56,165.56 Z" fill="#FFFFFF" fill-rule="nonzero"></path>
    </g>
</svg>